<?xml version="1.0" encoding="UTF-8" standalone="no"?>
<svg
   xmlns:dc="http://purl.org/dc/elements/1.1/"
   xmlns:cc="http://creativecommons.org/ns#"
   xmlns:rdf="http://www.w3.org/1999/02/22-rdf-syntax-ns#"
   xmlns:svg="http://www.w3.org/2000/svg"
   xmlns="http://www.w3.org/2000/svg"
   xmlns:xlink="http://www.w3.org/1999/xlink"
   xmlns:sodipodi="http://sodipodi.sourceforge.net/DTD/sodipodi-0.dtd"
   xmlns:inkscape="http://www.inkscape.org/namespaces/inkscape"
   width="1127"
   height="598"
   stroke="#000"
   stroke-linecap="round"
   stroke-linejoin="round"
   fill="#fff"
   fill-rule="evenodd"
   version="1.1"
   id="svg73"
   sodipodi:docname="scene2.svg"
   inkscape:version="0.92.3 (2405546, 2018-03-11)">
  <metadata
     id="metadata77">
    <rdf:RDF>
      <cc:Work
         rdf:about="">
        <dc:format>image/svg+xml</dc:format>
        <dc:type
           rdf:resource="http://purl.org/dc/dcmitype/StillImage" />
        <dc:title></dc:title>
      </cc:Work>
    </rdf:RDF>
  </metadata>
  <sodipodi:namedview
     pagecolor="#ffffff"
     bordercolor="#666666"
     borderopacity="1"
     objecttolerance="10"
     gridtolerance="10"
     guidetolerance="10"
     inkscape:pageopacity="0"
     inkscape:pageshadow="2"
     inkscape:window-width="2558"
     inkscape:window-height="1368"
     id="namedview75"
     showgrid="false"
     inkscape:zoom="1.0079858"
     inkscape:cx="801.03336"
     inkscape:cy="248.47117"
     inkscape:window-x="-7"
     inkscape:window-y="0"
     inkscape:window-maximized="0"
     inkscape:current-layer="svg73" />
  <style
     id="style2"><![CDATA[.B{fill-rule:nonzero}.C{stroke:none}.D{stroke-width:4.1667}.E{fill:#d0cfce}.F{stroke-miterlimit:10}.G{stroke-linejoin:miter}]]></style>
  <g
     transform="matrix(.70710678 .70710678 -.70710678 .70710678 550.4548 .4999981)"
     id="g32">
    <g
       class="B C"
       id="g18">
      <g
         fill="#3f3f3f"
         id="g8">
        <use
           xlink:href="#B"
           id="use4" />
        <use
           xlink:href="#C"
           id="use6" />
      </g>
      <use
         xlink:href="#D"
         class="E"
         id="use10" />
      <g
         fill="#9b9b9a"
         id="g16">
        <use
           xlink:href="#E"
           id="use12" />
        <use
           xlink:href="#F"
           id="use14" />
      </g>
    </g>
    <g
       fill="none"
       class="D"
       id="g30">
      <use
         xlink:href="#B"
         id="use20" />
      <use
         xlink:href="#C"
         id="use22" />
      <use
         xlink:href="#D"
         id="use24" />
      <use
         xlink:href="#E"
         id="use26" />
      <use
         xlink:href="#F"
         id="use28" />
    </g>
  </g>
  <g
     transform="matrix(0 1 -1 0 581.5 99.5904)"
     id="g38">
    <use
       xlink:href="#G"
       class="B C E"
       id="use34" />
    <use
       xlink:href="#G"
       stroke-linecap="butt"
       fill="none"
       class="D"
       id="use36" />
  </g>
  <path
     fill="#4f4f4f"
     d="M.5 420.5904h1125v175H.5z"
     id="path40" />
  <g
     id="g58"
     style="fill:none">
    <path
       d="m 350.5,420.5904 195,-290 m 15,5 190,285"
       id="path56"
       inkscape:connector-curvature="0"
       style="stroke-dasharray:5, 6" />
  </g>
  <defs
     id="defs71">
    <path
       id="B"
       d="M24.1582 132.3906L.6094 108.8416c-.8125-.8127-.8125-2.1303 0-2.943l31.429-31.429c.8127-.8125 2.1303-.8125 2.943 0l23.549 23.5488c.8125.8128.8125 2.1303 0 2.9431l-31.4291 31.4291c-.8128.8125-2.1303.8125-2.9431 0z" />
    <path
       id="C"
       d="M98.0163 58.5325L74.4696 34.9856c-.8125-.8127-.8125-2.1303 0-2.943L105.8986.6094c.8127-.8125 2.1303-.8125 2.943 0l23.549 23.5488c.8125.8128.8125 2.1303 0 2.9431l-31.4291 31.4291c-.8128.8125-2.1303.8125-2.9431 0z" />
    <path
       id="D"
       d="M99.488 72.996L72.996 99.488c-.8127.8125-2.1303.8125-2.9431 0l-29.435-29.4351c-.8125-.8128-.8125-2.1303 0-2.9431l26.4919-26.4919c.8128-.8125 2.1303-.8125 2.9431 0l29.4351 29.435c.8125.8128.8125 2.1304 0 2.9431z" />
    <path
       id="E"
       d="M67.1099 40.6179l-26.492 26.492c-.8127.8125-2.1303.8125-2.943 0l-8.8293-8.8335c-.8125-.8127-.8125-2.1303 0-2.943l26.4899-26.4878c.8127-.8125 2.1302-.8125 2.943 0l8.8314 8.8314c.8125.8127.8125 2.1302 0 2.943z" />
    <path
       id="F"
       d="M102.4332 84.7725l-17.6607 17.6607c-.8128.8125-2.1303.8125-2.9431 0l-4.4125-4.4126c-.8125-.8129-.8125-2.1303 0-2.9431l17.6606-17.6606c.8128-.8125 2.1302-.8125 2.9431 0l4.4126 4.4125c.8125.8128.8125 2.1303 0 2.9431z" />
    <path
       id="G"
       d="M35.508 35.3518l10.6961 8.0329c.458.3398 1.0868.408 1.618.1756s.8711-.7246.8747-1.2664v-23.48c-.0036-.5418-.3435-1.0339-.8747-1.2664s-1.16-.1642-1.618.1756l-10.9923 8.2535" />
    <path
       id="H"
       d="M555.5 201.6957l-5 18.5468-5-18.5468 1.2353-3.9521 2.9222 10.8407v-52.9939h1.6856v52.9939l2.9222-10.8407z" />
  </defs>
  <ellipse
     style="opacity:1;fill:#000000;fill-opacity:1;stroke:#000000;stroke-width:0.26499999;stroke-miterlimit:4;stroke-dasharray:2.12, 0.53, 0.265, 0.53;stroke-dashoffset:0;stroke-opacity:1"
     id="path4626"
     cx="376.98944"
     cy="419.42606"
     rx="16.865316"
     ry="2.9762323" />
  <ellipse
     style="opacity:1;fill:#000000;fill-opacity:1;stroke:#000000;stroke-width:0.15952417;stroke-miterlimit:4;stroke-dasharray:1.27619347, 0.31904837, 0.15952418, 0.31904837;stroke-dashoffset:0;stroke-opacity:1"
     id="path4626-6"
     cx="440.48239"
     cy="418.43399"
     rx="6.0052023"
     ry="3.0289702" />
  <ellipse
     style="opacity:1;fill:#000000;fill-opacity:1;stroke:#000000;stroke-width:0.23088807;stroke-miterlimit:4;stroke-dasharray:1.84710467, 0.46177617, 0.23088808, 0.46177617;stroke-dashoffset:0;stroke-opacity:1"
     id="path4626-0"
     cx="545.64264"
     cy="416.94586"
     rx="6.9615979"
     ry="5.4734821" />
  <ellipse
     style="opacity:1;fill:#000000;fill-opacity:1;stroke:#000000;stroke-width:0.26499999;stroke-miterlimit:4;stroke-dasharray:2.12, 0.53, 0.265, 0.53;stroke-dashoffset:0;stroke-opacity:1"
     id="path4626-66"
     cx="712.31165"
     cy="419.42606"
     rx="16.865316"
     ry="2.9762323" />
  <ellipse
     style="opacity:1;fill:#000000;fill-opacity:1;stroke:#000000;stroke-width:0.26499999;stroke-miterlimit:4;stroke-dasharray:2.12, 0.53, 0.265, 0.53;stroke-dashoffset:0;stroke-opacity:1"
     id="path4626-1"
     cx="127.97798"
     cy="419.42606"
     rx="16.865316"
     ry="2.9762323" />
  <ellipse
     style="opacity:1;fill:#000000;fill-opacity:1;stroke:#000000;stroke-width:0.20438401;stroke-miterlimit:4;stroke-dasharray:1.63507228, 0.40876807, 0.20438403, 0.40876807;stroke-dashoffset:0;stroke-opacity:1"
     id="path4626-6-9"
     cx="267.8609"
     cy="415.45773"
     rx="5.9827724"
     ry="4.990695" />
  <ellipse
     style="opacity:1;fill:#000000;fill-opacity:1;stroke:#000000;stroke-width:0.15952417;stroke-miterlimit:4;stroke-dasharray:1.27619347, 0.31904837, 0.15952418, 0.31904837;stroke-dashoffset:0;stroke-opacity:1"
     id="path4626-6-7"
     cx="579.37323"
     cy="419.42606"
     rx="6.0052023"
     ry="3.0289702" />
  <ellipse
     style="opacity:1;fill:#000000;fill-opacity:1;stroke:#000000;stroke-width:0.26499999;stroke-miterlimit:4;stroke-dasharray:2.12, 0.53, 0.265, 0.53;stroke-dashoffset:0;stroke-opacity:1"
     id="path4626-66-0"
     cx="863.10742"
     cy="418.43396"
     rx="16.865316"
     ry="2.9762323" />
  <ellipse
     style="opacity:1;fill:#000000;fill-opacity:1;stroke:#000000;stroke-width:0.15952417;stroke-miterlimit:4;stroke-dasharray:1.27619347, 0.31904837, 0.15952418, 0.31904837;stroke-dashoffset:0;stroke-opacity:1"
     id="path4626-6-7-0"
     cx="799.61444"
     cy="419.42606"
     rx="6.0052023"
     ry="3.0289702" />
</svg>
