<svg xmlns="http://www.w3.org/2000/svg" xmlns:xlink="http://www.w3.org/1999/xlink" width="1127" height="598" stroke="#000" stroke-linecap="round" stroke-linejoin="round" fill="#fff" fill-rule="evenodd"><style><![CDATA[.B{fill-rule:nonzero}.C{stroke:none}.D{stroke-width:4.1667}.E{fill:#d0cfce}.F{stroke-miterlimit:10}.G{stroke-linejoin:miter}]]></style><g transform="matrix(.70710678 .70710678 -.70710678 .70710678 550.4548 .4999981)"><g class="B C"><g fill="#3f3f3f"><use xlink:href="#B"/><use xlink:href="#C"/></g><use xlink:href="#D" class="E"/><g fill="#9b9b9a"><use xlink:href="#E"/><use xlink:href="#F"/></g></g><g fill="none" class="D"><use xlink:href="#B"/><use xlink:href="#C"/><use xlink:href="#D"/><use xlink:href="#E"/><use xlink:href="#F"/></g></g><g transform="matrix(0 1 -1 0 581.5 99.5904)"><use xlink:href="#G" class="B C E"/><use xlink:href="#G" stroke-linecap="butt" fill="none" class="D"/></g><path fill="#4f4f4f" d="M.5 420.5904h1125v175H.5z"/><g class="B C"><path d="M538 424.2862c0-4.406 5.8114-7.9531 13.0299-7.9531s13.03 3.5471 13.03 7.9531-5.8114 7.9532-13.03 7.9532S538 428.6923 538 424.2862z" fill="#a57939"/><path d="M554.5534 394.4746c2.4477-1.2805 5.2321-1.9403 8.0599-1.91 5.2809 0 9.8093 6.5656 16.6641 6.5656 1.0106 0 1.5158-.4113 2.5376-.4113.8462 0 1.185.5458 1.185 1.5118v1.6452c0 .7529-.91 1.6089-3.5828 1.6089-8.0331 0-12.5627-4.108-17.2231-4.108-2.7794.0476-5.4763.8613-7.7301 2.3324v-4.4849z" class="E"/></g><g fill="none"><g class="D"><path d="M556.2548 416.9981c4.5945 1.2288 7.8062 4.0292 7.8062 7.2882 0 4.3919-5.8353 7.9531-13.03 7.9531s-13.0299-3.5601-13.0299-7.9531c0-3.1873 3.0708-5.9361 7.5054-7.2053" class="F G"/><path d="M554.5534 382.847c2.4063-1.4073 5.1949-2.1881 8.0599-2.2566 5.2809 0 9.8093 4.1514 16.6641 4.1514 1.0106 0 1.5158-.4113 2.5376-.4113.8462 0 1.185.5457 1.185 1.5118v16.0336c0 .7529-.91 1.6089-3.5828 1.6089-8.0331 0-12.5627-4.108-17.2231-4.108-2.7794.0476-5.4763.8614-7.7301 2.3324v-4.4849"/><path d="M550.6711 380.7652v42.3629" class="F G"/></g><path d="M350.5 420.5904l195-290m15 5l190 285" stroke-dasharray="5 6"/></g><use xlink:href="#H" fill="#3f3f3f" class="B C"/><use xlink:href="#H" fill="none" class="D F"/><defs ><path id="B" d="M24.1582 132.3906L.6094 108.8416c-.8125-.8127-.8125-2.1303 0-2.943l31.429-31.429c.8127-.8125 2.1303-.8125 2.943 0l23.549 23.5488c.8125.8128.8125 2.1303 0 2.9431l-31.4291 31.4291c-.8128.8125-2.1303.8125-2.9431 0z"/><path id="C" d="M98.0163 58.5325L74.4696 34.9856c-.8125-.8127-.8125-2.1303 0-2.943L105.8986.6094c.8127-.8125 2.1303-.8125 2.943 0l23.549 23.5488c.8125.8128.8125 2.1303 0 2.9431l-31.4291 31.4291c-.8128.8125-2.1303.8125-2.9431 0z"/><path id="D" d="M99.488 72.996L72.996 99.488c-.8127.8125-2.1303.8125-2.9431 0l-29.435-29.4351c-.8125-.8128-.8125-2.1303 0-2.9431l26.4919-26.4919c.8128-.8125 2.1303-.8125 2.9431 0l29.4351 29.435c.8125.8128.8125 2.1304 0 2.9431z"/><path id="E" d="M67.1099 40.6179l-26.492 26.492c-.8127.8125-2.1303.8125-2.943 0l-8.8293-8.8335c-.8125-.8127-.8125-2.1303 0-2.943l26.4899-26.4878c.8127-.8125 2.1302-.8125 2.943 0l8.8314 8.8314c.8125.8127.8125 2.1302 0 2.943z"/><path id="F" d="M102.4332 84.7725l-17.6607 17.6607c-.8128.8125-2.1303.8125-2.9431 0l-4.4125-4.4126c-.8125-.8129-.8125-2.1303 0-2.9431l17.6606-17.6606c.8128-.8125 2.1302-.8125 2.9431 0l4.4126 4.4125c.8125.8128.8125 2.1303 0 2.9431z"/><path id="G" d="M35.508 35.3518l10.6961 8.0329c.458.3398 1.0868.408 1.618.1756s.8711-.7246.8747-1.2664v-23.48c-.0036-.5418-.3435-1.0339-.8747-1.2664s-1.16-.1642-1.618.1756l-10.9923 8.2535"/><path id="H" d="M555.5 201.6957l-5 18.5468-5-18.5468 1.2353-3.9521 2.9222 10.8407v-52.9939h1.6856v52.9939l2.9222-10.8407z"/></defs></svg>